<?xml version="1.0" encoding="UTF-8"?>
<svg id="Layer_2" data-name="Layer 2" xmlns="http://www.w3.org/2000/svg" viewBox="0 0 204.61 242.55">
  <defs>
    <style>
      .cls-1 {
        fill: #063c33;
      }
    </style>
  </defs>
  <g id="Layer_1-2" data-name="Layer 1">
    <g>
      <path class="cls-1" d="m141.93,134.69c4.09,0,7.42-3.33,7.42-7.42,0-3.72-2.75-6.8-6.33-7.33V8.52h23.52c.53,3.57,3.62,6.32,7.34,6.32,4.09,0,7.42-3.33,7.42-7.42s-3.33-7.42-7.42-7.42c-3.72,0-6.8,2.75-7.34,6.33h-25.72v113.61c-3.57.53-6.33,3.61-6.33,7.33,0,4.09,3.33,7.42,7.43,7.42Z"/>
      <path class="cls-1" d="m93.32,227.7c-3.46,0-6.37,2.34-7.19,5.6-25.47-3.41-40.38-12.4-47.64-18.22,1.03-1.3,1.61-2.91,1.61-4.6,0-4.09-3.33-7.42-7.42-7.42s-7.42,3.33-7.42,7.42,3.33,7.42,7.42,7.42c1.49,0,2.92-.45,4.13-1.27,7.37,6.04,22.59,15.35,49.11,18.85.2,3.92,3.44,7.05,7.4,7.05s7.42-3.33,7.42-7.42-3.33-7.42-7.42-7.42Z"/>
      <path class="cls-1" d="m51.88,183.29c4.09,0,7.42-3.33,7.42-7.42s-3.33-7.42-7.42-7.42c-1.42,0-2.78.4-3.95,1.13-9.94-18.84-7.49-31.3-7.46-31.43l.02-.11V37.92c3.43-.67,6-3.69,6-7.28,0-4.09-3.33-7.42-7.42-7.42s-7.42,3.33-7.42,7.42c0,3.84,2.92,7,6.65,7.39v99.78c-.28,1.47-2.3,14.2,7.93,33.26-1.13,1.33-1.77,3.04-1.77,4.8,0,4.09,3.33,7.42,7.42,7.42Z"/>
      <path class="cls-1" d="m27.45,30.64c0-4.09-3.33-7.42-7.42-7.42s-7.42,3.33-7.42,7.42c0,3.72,2.75,6.8,6.32,7.34v45.25c-4.05.05-7.32,3.36-7.32,7.42s3.33,7.42,7.42,7.42,7.42-3.33,7.42-7.42c0-3.35-2.19-6.2-5.33-7.12v-45.55c3.57-.53,6.33-3.62,6.33-7.34Z"/>
      <path class="cls-1" d="m8.77,163.34c-.6,0-1.19.08-1.76.22-1.78-7.28-5.04-21.56-4.8-24.9v-.04s0-130.1,0-130.1h51.76l1.27,56c-3.83.29-6.87,3.49-6.87,7.39s3.33,7.42,7.42,7.42,7.42-3.33,7.42-7.42c0-3.47-2.47-6.47-5.78-7.23l-1.32-58.37H.01v132.22c-.26,4.14,3.63,20.49,4.94,25.86-2.22,1.33-3.61,3.73-3.61,6.36,0,4.09,3.33,7.42,7.42,7.42s7.42-3.33,7.42-7.42-3.33-7.42-7.42-7.42Z"/>
      <path class="cls-1" d="m63.79,139.91c0-4.09-3.33-7.42-7.42-7.42s-7.42,3.33-7.42,7.42,3.13,7.21,7.05,7.4c.5,2.53,1.32,5.53,2.69,8.76,3.42,8.06,11.05,18.99,27.91,25.31.35.14,4.25,1.6,10.48,1.6,6.74,0,16.22-1.71,26.91-8.66,1.38,1.4,3.29,2.22,5.28,2.22,4.09,0,7.42-3.33,7.42-7.42s-3.33-7.42-7.42-7.42-7.42,3.33-7.42,7.42c0,1.21.29,2.37.83,3.42-19.62,12.6-35.12,6.86-35.3,6.79-12.92-4.85-21.88-12.93-26.63-24.03-1.28-3-2.07-5.82-2.54-8.21,3.21-.83,5.59-3.78,5.59-7.19Z"/>
      <path class="cls-1" d="m204.61,7.42c0-4.09-3.33-7.42-7.42-7.42s-7.42,3.33-7.42,7.42c0,3.72,2.75,6.8,6.32,7.33v129.12c-.05.73-1.05,15.17-8.12,32.32-6.27,15.23-18.66,35.57-42.44,48.38-1.37-1.97-3.66-3.2-6.1-3.2-4.09,0-7.42,3.33-7.42,7.42s3.33,7.42,7.42,7.42,7.42-3.33,7.42-7.42c0-.77-.13-1.53-.36-2.25,24.39-13.11,37.09-33.93,43.51-49.52,7.35-17.86,8.27-32.91,8.28-33.06V14.75c3.57-.53,6.33-3.61,6.33-7.33Z"/>
      <path class="cls-1" d="m180.31,23.22h-23.5v114c-.81,24.42-9.93,42.07-27.1,52.48-6.44,3.9-12.87,6-17.69,7.12-.99-2.99-3.79-5.06-7.03-5.06-4.09,0-7.42,3.33-7.42,7.42s3.33,7.42,7.42,7.42,7.42-3.33,7.42-7.42c0-.06,0-.11,0-.17,4.98-1.14,11.61-3.3,18.37-7.38,12.31-7.43,27.2-22.89,28.24-54.37V25.42h19.11v94.52c-3.57.53-6.32,3.61-6.32,7.33,0,4.09,3.33,7.42,7.42,7.42s7.42-3.33,7.42-7.42c0-3.72-2.75-6.8-6.33-7.33V23.22Z"/>
      <path class="cls-1" d="m160.29,191.23c1.17.74,2.54,1.14,3.94,1.14,4.09,0,7.42-3.33,7.42-7.42s-3.33-7.42-7.42-7.42-7.42,3.33-7.42,7.42c0,1.8.66,3.52,1.82,4.85-18.63,21.43-41.67,26.34-57.81,26.66-17.76.35-31.28-4.62-31.44-4.68-24.85-8.62-36.64-27.65-42.15-42.1-3.65-9.57-5.12-18.44-5.7-23.97,3.4-.69,5.93-3.68,5.93-7.27,0-4.09-3.33-7.42-7.42-7.42s-7.42,3.33-7.42,7.42c0,3.85,2.95,7.02,6.7,7.39.58,5.62,2.06,14.65,5.84,24.56,5.68,14.91,17.83,34.56,43.49,43.46.54.2,13.09,4.83,30.34,4.83.6,0,1.2,0,1.81-.02,16.61-.31,40.33-5.36,59.51-27.43Z"/>
    </g>
  </g>
</svg>