<?xml version="1.0" encoding="UTF-8"?>
<svg id="Layer_1" data-name="Layer 1" xmlns="http://www.w3.org/2000/svg" viewBox="0 0 1051.02 300">
  <defs>
    <style>
      .cls-1 {
        fill: #063c33;
      }

      .cls-2 {
        stroke-width: 7px;
      }

      .cls-2, .cls-3 {
        fill: none;
        stroke: #063c33;
        stroke-miterlimit: 10;
      }

      .cls-3 {
        stroke-width: 2px;
      }
    </style>
  </defs>
  <g>
    <g>
      <path class="cls-1" d="m496.54,214.17c-2.91,7.7-6.75,14.62-11.59,20.74-5.96,7.57-13.4,13.58-22.34,18.02-8.92,4.43-19.22,6.65-30.89,6.65-15.71,0-29.44-1.35-41.15-4.06-11.72-2.69-21.48-7.25-29.31-13.64-7.82-6.37-13.66-14.86-17.51-25.42-3.85-10.58-5.77-23.73-5.77-39.46V46.45h-22.7v-3.04h85.13v3.04h-22.21v142.21c0,5.15.51,10.45,1.54,15.86,1,5.41,2.52,10.62,4.55,15.67,2.03,5.02,4.55,9.77,7.55,14.2,3.01,4.45,6.5,8.32,10.48,11.61,3.98,3.29,8.42,5.9,13.38,7.8,4.94,1.9,10.37,2.86,16.29,2.86,13.45,0,25.25-3.21,35.4-9.58,10.13-6.39,18.13-15.58,23.97-27.6,1.3-2.67,2.44-5.47,3.44-8.38.56,1.03,1.13,2.05,1.75,3.06Z"/>
      <path class="cls-1" d="m534.98,46.45h-31.96v29.07c-1.05,1.35-2.05,2.74-3.04,4.15v-33.22h-33.99v-3.04h68.99v3.04Z"/>
      <path class="cls-1" d="m541.4,52.52v.34h-.68c.23-.13.45-.24.68-.34Z"/>
      <path class="cls-1" d="m465.99,43.42v3.04h33.99v33.22c.98-1.41,1.99-2.8,3.04-4.15v-29.07h31.96v-3.04h-68.99Zm28.8,167.69c-1.01,2.91-2.14,5.71-3.44,8.38-5.84,12.01-13.83,21.21-23.97,27.6-10.15,6.37-21.96,9.58-35.4,9.58-5.92,0-11.35-.96-16.29-2.86-4.96-1.9-9.41-4.51-13.38-7.8-3.98-3.29-7.46-7.16-10.48-11.61-2.99-4.43-5.51-9.17-7.55-14.2-2.03-5.05-3.55-10.26-4.55-15.67-1.03-5.41-1.54-10.71-1.54-15.86V46.45h22.21v-3.04h-85.13v3.04h22.7v130.54c0,15.73,1.92,28.88,5.77,39.46,3.85,10.56,9.68,19.05,17.51,25.42,7.82,6.39,17.59,10.95,29.31,13.64,11.72,2.72,25.44,4.06,41.15,4.06,11.67,0,21.98-2.22,30.89-6.65,8.94-4.45,16.38-10.45,22.34-18.02,4.83-6.11,8.68-13.04,11.59-20.74-.62-1-1.2-2.03-1.75-3.06Z"/>
      <path class="cls-1" d="m541.4,52.52v.34h-.68c.23-.13.45-.24.68-.34Z"/>
      <path class="cls-1" d="m540.71,52.87h.68v-.34c-.24.11-.45.21-.68.34Z"/>
      <path class="cls-1" d="m710.41,153.9v3.06h-21.83v86c-16.4,6.5-32.99,10.9-49.73,13.19-15.05,2.03-27.58,3.04-37.54,3.04h-3.19c-15.22,0-29.54-2.22-42.99-6.65-13.45-4.45-25.29-11.22-35.53-20.37-6.11-5.41-11.46-11.67-15.99-18.79-1.56-2.39-3.01-4.9-4.38-7.48-.66-1.24-1.28-2.5-1.88-3.78-.66-1.37-1.3-2.76-1.9-4.19-.98-2.29-1.88-4.64-2.67-7.08-4.1-12.16-6.14-26.04-6.14-41.62,0-16.4,2.31-30.87,6.93-43.42.73-2.03,1.54-4,2.39-5.92,1.24-2.8,2.59-5.47,4.02-8.06.96-1.75,1.99-3.46,3.04-5.13,1.99-3.14,4.1-6.11,6.41-8.91,3.59-4.47,7.59-8.51,11.95-12.16,5.52-4.64,11.39-8.62,17.7-11.91.53-.28,1.09-.56,1.62-.83h.68v-.34c5.58-2.8,11.35-5.11,17.29-7.01,6.76-2.16,13.7-3.74,20.8-4.77,7.1-1,14.22-1.52,21.31-1.52l8.87-.13c6.09,0,11.99.28,17.7.83,5.71.56,11.31,1.37,16.8,2.48,5.49,1.09,10.99,2.5,16.5,4.23,5.49,1.73,11.03,3.74,16.61,6.03l7.35,2.8.64,42.74h-2.93c-.58-10.13-3.57-19.39-8.94-27.77-5.37-8.38-13.34-15.14-23.92-20.31-10.39-5.15-23.79-7.72-40.21-7.72-12.25,0-23.26,2.78-33.03,8.36-9.77,5.58-18.17,13.32-25.18,23.22-7.01,9.9-12.44,21.23-16.25,33.99-3.8,12.78-5.71,26.47-5.71,41.11.26,8.79,1.2,17.57,2.8,26.32,1.6,8.74,3.96,17.08,7.03,24.99,3.1,7.91,6.97,15.24,11.61,22,4.66,6.78,10.15,12.66,16.5,17.64,6.33,5,13.58,8.91,21.74,11.74,8.17,2.84,17.27,4.25,27.34,4.25,4.4,0,8.32-.36,11.74-1.09,3.42-.71,6.39-1.6,8.94-2.65,2.54-1.07,4.64-2.18,6.29-3.36,1.65-1.2,2.84-2.2,3.61-3.06l1.65-1.77v-87.14h-23.6v-3.06h85.64Z"/>
    </g>
    <path class="cls-1" d="m860.24,259.58c-11.16,0-21.02-3.17-29.56-9.52-8.46-6.17-14.84-17.59-19.15-34.25-1.35-4.82-2.37-10.15-3.04-15.98-.59-5.84-1.61-11.42-3.05-16.74-1.44-5.24-3.8-9.6-7.1-13.07-3.55-3.55-8.63-5.37-15.22-5.45h-23.34v88.54h22.33v3.04h-85.24v-3.04h22.45V46.46h-22.45v-3.04h85.37c16.07,0,29.51,2.73,40.34,8.18,10.82,5.46,18.99,12.75,24.48,21.88,5.5,9.31,8.25,19.5,8.25,30.57,0,13.19-3.72,24.82-11.16,34.88-7.36,10.15-18.61,17.46-33.74,21.95h.89c10.23.51,19.54,5.88,27.91,16.11,3.55,4.82,6,10.32,7.36,16.49,1.35,6.17,2.37,12.56,3.04,19.15.76,8.96,2.37,17.25,4.82,24.86,4.4,10.99,10.02,16.49,16.87,16.49,5.41,0,10.53-4.1,15.35-12.31l2.79-.13c-3.89,7.02-8.12,11.84-12.69,14.46-4.14,2.37-8.84,3.55-14.08,3.55h-2.41Zm-95.01-98.44c15.9,0,28.2-4.99,36.92-14.97,8.62-10.06,12.94-24.1,12.94-42.11,0-8.88-1.06-16.87-3.17-23.98-2.11-7.1-5.24-13.13-9.39-18.08-4.14-4.95-9.32-8.75-15.54-11.42-6.22-2.66-13.47-4-21.76-4h-5.46v114.55h5.46Z"/>
    <g>
      <polygon class="cls-1" points="980.23 253.11 899.05 39.36 896.76 39.23 875.92 91.93 923.06 215.24 923.06 215.24 937.61 253.11 914.39 253.11 914.39 256.15 1002.68 256.15 1002.68 253.11 980.23 253.11"/>
      <polygon class="cls-1" points="895.23 50.17 850.64 158.48 849.72 156.69 892.97 49.26 895.23 50.17"/>
    </g>
  </g>
  <line class="cls-3" x1="281.65" y1="34.52" x2="281.65" y2="256.93"/>
  <g>
    <g>
      <circle class="cls-1" cx="214.6" cy="158.89" r="5.9"/>
      <circle class="cls-1" cx="231.38" cy="47.02" r="5.9"/>
      <circle class="cls-1" cx="55.49" cy="199.5" r="5.9"/>
      <circle class="cls-1" cx="66" cy="169.33" r="5.9"/>
      <circle class="cls-1" cx="65.07" cy="124.71" r="5.9"/>
      <circle class="cls-1" cx="83.77" cy="68.69" r="5.9"/>
      <circle class="cls-1" cx="99.39" cy="107.23" r="5.9"/>
      <circle class="cls-1" cx="167.98" cy="197.97" r="5.9"/>
      <circle class="cls-1" cx="145.3" cy="226.01" r="5.9"/>
      <circle class="cls-1" cx="200.61" cy="212.74" r="5.9"/>
      <circle class="cls-1" cx="177.46" cy="253.67" r="5.9"/>
      <circle class="cls-1" cx="134.42" cy="259.58" r="5.9"/>
      <circle class="cls-1" cx="77.81" cy="236.58" r="5.9"/>
      <circle class="cls-1" cx="179.79" cy="158.89" r="5.9"/>
      <circle class="cls-1" cx="209.63" cy="47.02" r="5.9"/>
      <circle class="cls-1" cx="99.93" cy="170.7" r="5.9"/>
      <circle class="cls-1" cx="95.73" cy="204.26" r="5.9"/>
    </g>
    <g>
      <circle class="cls-1" cx="66" cy="68.69" r="5.9"/>
      <path class="cls-2" d="m53.32,194.89s-5.28-21.08-4.97-25.43V47.02h50.34l1.24,55"/>
      <line class="cls-2" x1="66" y1="71.26" x2="66" y2="124.71"/>
      <path class="cls-2" d="m84.08,68.69v100.14s-2.95,13.67,9.4,34.18"/>
      <polyline class="cls-2" points="209.63 47.02 179.79 47.02 179.79 155.18"/>
      <path class="cls-2" d="m144.37,226.01s48.48-1.86,50.34-57.8V62.79h19.89v95.48"/>
      <path class="cls-2" d="m231.38,47.02v127.41s-3.11,55.31-51.9,78.31"/>
      <path class="cls-2" d="m77.24,236.58s14.68,19.27,56.44,23"/>
      <path class="cls-2" d="m99.93,170.7s-1.24,26.57,28.59,37.76c0,0,17.87,6.99,39.47-10.49"/>
      <path class="cls-2" d="m66,170.7s.05,52.21,45.73,68.06c0,0,50.66,18.98,85.04-21.53"/>
    </g>
  </g>
</svg>